<?xml version="1.0" encoding="UTF-8"?>
<svg id="Capa_2" data-name="Capa 2" xmlns="http://www.w3.org/2000/svg" viewBox="0 0 647.28 737.67">
  <defs>
    <style>
      .cls-1 {
        fill: #00618d;
      }

      .cls-2 {
        fill: #00765e;
      }
    </style>
  </defs>
  <g id="Capa_1-2" data-name="Capa 1">
    <g>
      <g>
        <path class="cls-1" d="M59.68,737.67H27.04v-125.83H0v-37.72h86.91v37.72h-27.23v125.83Z"/>
        <path class="cls-2" d="M522.32,636.92v37.5h-47.32v25.74h58.33v37.5h-90.97v-162.67l90.97-.22v37.5h-58.33v24.63h47.32Z"/>
        <path class="cls-2" d="M605.95,581.88c8.3,4.66,15.45,10.65,21.63,17.97,5.99,7.32,10.82,15.76,14.49,25.74,3.48,9.76,5.21,20.19,5.21,31.29s-1.74,21.08-5.21,30.62c-3.48,9.54-8.3,17.98-14.29,25.3-6.18,7.32-13.33,13.09-21.63,17.31-8.11,4.22-17,6.88-26.85,7.55h-32.64v-163.78h32.64v.22c9.85.67,18.73,3.33,26.65,7.77ZM593.39,695.28c4.06-2.44,7.92-5.55,11.2-9.32,3.28-3.99,5.79-8.43,7.34-13.09,1.74-5.32,2.7-10.65,2.7-15.98s-.97-11.1-2.7-16.65c-1.74-5.1-4.25-9.76-7.53-13.98-3.28-4.22-7.15-7.55-11.2-9.99-4.25-2.44-8.88-3.99-13.91-4.66v88.32c4.83-.67,9.66-2.22,14.1-4.66Z"/>
        <path class="cls-1" d="M267,672.43c2.9-8.43,3.48-17.09,1.74-25.74-2.32-11.76-7.92-20.86-16.8-27.3-8.88-6.44-18.35-8.21-28.58-5.33-10.24,2.66-17.96,9.1-23.56,19.08-5.6,10.21-7.34,21.3-5.02,33.07,2.32,11.76,7.92,20.64,16.8,27.07,8.88,6.44,18.54,8.43,28.78,5.77.39-.22.97-.44,1.55-.67.58-.22.97-.22,1.16-.44l-21.44-22.64,22.02-27.74,23.37,24.85Z"/>
        <path class="cls-2" d="M422.66,574.56h-33.61l-30.32,102.08-31.1-102.08h-33.61l-2.17,38.95c3.96,7.39,6.88,15.63,8.75,24.74,4.25,21.53,1.35,41.72-8.69,60.58l10.62,11.32-17.25,21.56-.33,5.95h32.83l3.86-69.24,20.86,69.24h32.64l19.7-66.57,3.48,66.57h32.64l-8.3-163.11Z"/>
        <path class="cls-1" d="M172.25,700.17h-40.92v-25.74h31.72c-2.61-13.05-2.54-25.55.09-37.5h-31.81v-24.63h41.29c4.75-8.48,10.43-15.53,17.04-21.14v-16.36l-90.97.22v162.67h90.97v-16.32c-7.1-5.96-12.91-13.02-17.41-21.18Z"/>
      </g>
      <g>
        <path class="cls-1" d="M253.28,357.03c-30.86-19.45-50.31-46.29-58.36-81.84-8.05-35.55-2.01-69.09,17.44-99.95,19.45-30.19,46.29-49.64,81.84-57.69,35.55-8.72,68.42-3.35,99.28,16.1,1.2.75,2.35,1.54,3.51,2.32l76.79-84.34c-6.33-4.86-12.97-9.5-19.93-13.91C396.83,2.16,335.12-8.57,268.71,6.86c-66.41,15.43-117.39,51.65-152.95,108.67-35.55,57.02-46.29,118.74-30.86,185.15,15.43,65.74,51.65,116.72,108.67,152.28,57.02,36.22,118.74,46.96,184.48,31.53,15.34-3.54,30.22-8.48,44.64-14.78l-99.83-91.8c-24.38-.04-47.66-7.05-69.58-20.87Z"/>
        <path class="cls-2" d="M532.34,373.8c34.88-57.02,44.94-118.06,30.19-183.13-11-46.88-32.59-86.24-64.73-118.11l-76.54,84.06c15.09,16.39,25.31,36.22,30.59,59.54,6.04,26.16,4.02,52.32-6.04,77.81l-81.17-75.13-22.46,24.63-53.96,59.27,74.41,68.38s-.04.02-.06.04l130.36,119.87,76.32-83.01-36.89-34.21Z"/>
      </g>
    </g>
  </g>
</svg>